<?xml version="1.0" encoding="UTF-8"?>
<svg id="Layer_2" data-name="Layer 2" xmlns="http://www.w3.org/2000/svg" xmlns:xlink="http://www.w3.org/1999/xlink" viewBox="0 0 275.85 271.42">
  <defs>
    <style>
      .cls-1 {
        fill: #323b43;
      }

      .cls-1, .cls-2, .cls-3, .cls-4, .cls-5, .cls-6, .cls-7, .cls-8, .cls-9, .cls-10, .cls-11, .cls-12, .cls-13, .cls-14, .cls-15, .cls-16, .cls-17, .cls-18, .cls-19, .cls-20, .cls-21, .cls-22, .cls-23, .cls-24, .cls-25, .cls-26, .cls-27, .cls-28, .cls-29, .cls-30, .cls-31, .cls-32, .cls-33, .cls-34, .cls-35, .cls-36, .cls-37, .cls-38, .cls-39 {
        stroke-width: 0px;
      }

      .cls-2 {
        fill: #757676;
      }

      .cls-3 {
        fill: #15749a;
      }

      .cls-4 {
        fill: #02456e;
      }

      .cls-5 {
        fill: url(#linear-gradient);
      }

      .cls-6 {
        fill: #9dcfea;
      }

      .cls-7 {
        fill: #54ade0;
      }

      .cls-8 {
        fill: #84b0d6;
      }

      .cls-9 {
        fill: #538eb7;
      }

      .cls-10 {
        fill: #077eba;
      }

      .cls-11 {
        fill: #5e7c8a;
      }

      .cls-12 {
        fill: #f9fafc;
      }

      .cls-13 {
        fill: #bec3c6;
      }

      .cls-14 {
        fill: #6cbde7;
      }

      .cls-15 {
        fill: #4b666e;
      }

      .cls-16 {
        fill: #9b9b9b;
      }

      .cls-17 {
        fill: #333;
      }

      .cls-18 {
        fill: #415764;
      }

      .cls-19 {
        fill: #274154;
      }

      .cls-20 {
        fill: #f2fefe;
      }

      .cls-21 {
        fill: #484848;
      }

      .cls-22 {
        fill: #0d0e0d;
      }

      .cls-23 {
        fill: #1f190e;
      }

      .cls-24 {
        fill: #3c2f23;
      }

      .cls-25 {
        fill: #cceafb;
      }

      .cls-26 {
        fill: #032a47;
      }

      .cls-27 {
        fill: #aeafae;
      }

      .cls-28 {
        fill: #dee8f2;
      }

      .cls-29 {
        fill: #9fa9b0;
      }

      .cls-30 {
        fill: #585f63;
      }

      .cls-31 {
        fill: #878888;
      }

      .cls-32 {
        fill: #5c331e;
      }

      .cls-33 {
        fill: #045891;
      }

      .cls-34 {
        fill: #0c5b78;
      }

      .cls-35 {
        fill: #269ad5;
      }

      .cls-36 {
        fill: #93bddd;
      }

      .cls-37 {
        fill: #d9dadd;
      }

      .cls-38 {
        fill: #0169a3;
      }

      .cls-39 {
        fill: #5681a2;
      }
    </style>
    <linearGradient id="linear-gradient" x1="61.81" y1="182.56" x2="21.01" y2="216.29" gradientUnits="userSpaceOnUse">
      <stop offset="0" stop-color="#b2b2b3"/>
      <stop offset="1" stop-color="#e0e0e0"/>
    </linearGradient>
  </defs>
  <g id="Layer_1-2" data-name="Layer 1">
    <g>
      <path class="cls-9" d="M25.26,144.11c-3.22,3.59,53.67,35.3,45.32,36.85-23.71-12.35-44.35-29.73-67.77-44.47-2.1-2.03-3.34-2.45-2.12-4.24,4.5,3.45,12.49,11.4,5.51.21.78-1.1,1.94-.28,2.96-1.06,2.84,3.62,11.39,9.35,16.09,12.71Z"/>
      <path class="cls-3" d="M70.58,180.95c.12.05.3-.05.42,0,2.48,3.17-.53,2.02,1.27,4.24l-.85.42c-17.36-12.46-51.72-33.76-68.61-49.13,23.42,14.75,44.05,32.11,67.77,44.47Z"/>
      <path class="cls-12" d="M275.57,71.68l-13.55,7.62c-1.34-1.26-3.04-5.18,0-7.2,2.53,1.16,9.31-5.45,13.55-7.62.02,2.38.63,2.95,0,7.2Z"/>
      <path class="cls-12" d="M274.72,89.05l-13.13,6.78c.33-1.96.81-3.99,1.27-5.93,2.56-.85,11.3-7.03,11.86-5.29-.07,1.47.1,2.98,0,4.45Z"/>
      <path class="cls-13" d="M275.59,61.1c.07,1.12,0,2.27,0,3.39-4.22,2.17-10.98,8.74-13.53,7.63l-.06-.39c.66-.84.43-1.65.46-2.59l13.13-8.05Z"/>
      <path class="cls-14" d="M270.06,95.4c-2.67,1.56-5.31,2.91-8.05,4.66-2.35-.73-.85-1.74-.42-4.24l13.13-6.78c.61,4.49-1.37,4.02-4.66,6.35Z"/>
      <path class="cls-14" d="M275.57,71.68c-.16,1.11.12,2.45,0,3.6-4.97,3.25-7.74,4.19-13.13,5.72-.07-.41-.37-1.62-.42-1.69l13.55-7.62Z"/>
      <path class="cls-28" d="M11.71,128.01c.21.92-2.03,2.88-2.54,3.39-1.03.78-2.18-.04-2.96,1.06,6.98,11.19-1,3.24-5.51-.21-.04-.85-2.8-1.17,2.96-3.39.89,2.58,6.35,1.72,7.2-.85.09.05.51-.03.85,0Z"/>
      <path class="cls-23" d="M10.86,128.01c-.85,2.56-6.31,3.43-7.2.85-.31-.88.22-4.92,0-6.78.31.35,6.8,5.7,7.2,5.93Z"/>
      <path class="cls-28" d="M202.3,11.54c-.9-.38-.9-1.35-2.12-.42l-8.68,4.66q22.45,12.49,44.89,24.99c3.41.26,2.39-1.65,4.02-1.27-2.71,4.57,3.66,3.92-2.33,7.62-3.73,2.31-28.15,11.03-34.73,14.82l-3.18-3.39c.63-.35,6.08-3.19,5.72-3.81q-15.35-8.47-30.71-16.94c-.36-1.03-.71-2.75-1.69-2.54.06-.42.44-.47.42-.85,1.78-.72,1.59-3.6,1.27-5.51,13.67,7.5,26.91,15.48,40.87,22.45,1.47.09,7.87-3.72,9.53-4.66.87-.5,4.51-1.23,3.6-2.54-15.72-7.7-30.83-16.66-45.74-25.84q-5.4,2.96-10.8,5.93c-1.42-1.95-3.23-3.56-5.08-5.08,2.88-3.11,29.39-15.23,31.13-15.25.18,0,.53.82,3.18,1.48,0,3.18-2.04,3.05.42,6.14Z"/>
      <path class="cls-13" d="M198.49,59.4c.84,1.49,1.69,2.97,2.54,4.45-14.43,10.26-30.03,18.74-45.95,26.47-5.63-3.43-3.79-3.85-10.38-3.39,17.45-9.46,36.16-17.88,53.79-27.53Z"/>
      <path class="cls-7" d="M198.49,59.4c-17.98,9.4-36.67,19.05-54.64,27.53-4.67.39-7.21,4.25-10.59,7.2-3.03-1.07-6.13-1.77-9.32-2.12l.21-.85c22.03-10.29,44.8-19.67,65.44-32.61,3.18-2.38,4.96-2.57,0-8.47,3.75,2.28,6.75,5.52,8.89,9.32Z"/>
      <path class="cls-37" d="M212.46,91.17c-2.83,2.35-5.4,5.87-9.32,5.93,1.27-9-2.11-10.39-5.08-15.67-1.06-1.89-.68-3.95-3.81-6.14.06-.57,8.55-6.54,9.53-6.14,3.95,6.96,7.62,13.99,8.68,22.02Z"/>
      <path class="cls-14" d="M145.12,99.21c2.38,2.14,6.36,6.05,8.89,6.99,4.27,8.35,6.62,15.3,8.89,24.35-2.14,1.11-5.83,2.93-7.62,4.24-2.83-4-.89-9.45-2.12-13.98,4.89-5.87-11.19-21.39-8.05-21.6Z"/>
      <path class="cls-3" d="M200.18,58.55c-.51.28-1.15.55-1.69.85-5.07-8.27-14.02-13.79-22.24-19.06-1.32-.57-.78-1.75-1.06-2.54q15.35,8.47,30.71,16.94c.37.62-5.09,3.47-5.72,3.81Z"/>
      <path class="cls-7" d="M212.89,92.44c.83,7.56.21-.91-.42,10.16-.02.41-.87,2.81-.85,2.96-15.95,9.5-.29-6.36-5.93-8.89,2.21-.8,4.85-4.06,6.78-5.51,0,.07.3-.43.42,1.27Z"/>
      <path class="cls-14" d="M193.83,77.61q-19.48,10.38-38.96,20.75c-2.77-.15-.71.71-2.96.42,0-.13-2.04.29.21-1.69,13.75-6.91,27.97-13.12,41.08-21.18,1.62,1.15.51,1.57.64,1.69Z"/>
      <path class="cls-13" d="M233.64,82.7c.01.98.04,1.98,0,2.96-4.6,1.93-9.22,4.31-13.55,6.78-1.02-.59-.71-1.67-.85-2.54,5.04-1.83,9.43-5.9,14.4-7.2Z"/>
      <path class="cls-39" d="M143.85,86.93c-6.31,6.41,2.26,15.11-5.93,9.32l.42-6.78c2.92-2.1,2-2.04,5.51-2.54Z"/>
      <path class="cls-18" d="M219.24,89.9c.14.87-.18,1.95.85,2.54-2.24,1.27-4.21,3.13-6.78,3.81,0-.19-.29-1.94-.42-3.81,2.37-.2,4.31-1.86,6.35-2.96.03.14-.02.29,0,.42Z"/>
      <path class="cls-1" d="M262.44,66.18c-.08,1.79.43,3.86-.42,5.51l-2.12-2.12c.39-.98.36-2.73.42-3.81,1.82.25-.17,1.87,2.12.42Z"/>
      <g>
        <path class="cls-12" d="M275.57,61.1l-13.13,8.05c.56-8.71-4.73-16.46-9.53-23.29,3.5,7.99,11.06,16.62,5.93,25.41-3.41.53-22.41,11.62-23.72,11.44-.55-1.76-.09-3.6-.64-5.51-1.67-10.08-13.58-24.47-2.54-5.72,1.09,3.71,2.16,7.26,1.69,11.22-4.97,1.3-9.36,5.37-14.4,7.2-.46-4.2-2.84-9.22-4.02-12.71.61,5.35,1.52,8.28.21,14.4-.83.36-1.54,1.02-2.54.85-1.44-8.31-4.7-15.9-9.11-23.29-.98-.4-9.47,5.57-9.53,6.14,3.13,2.19,2.75,4.25,3.81,6.14-1.31-1.26-3-2.52-4.24-3.81-.12-.13.98-.54-.64-1.69-13.11,8.05-27.33,14.27-41.08,21.18-2.25,1.98-.21,1.57-.21,1.69.01,2.32.72,3.98-.42,5.93-2.11-1.95-4.29-3.34-6.35-5.51-1.46-1.54-2.69-3.74-3.81-3.39-.07-3.96-.11-5.59,2.54-8.89,6.61-.42,5.66-.29,11.22,3.39,15.93-7.73,31.53-16.22,45.95-26.47-.85-1.48-1.7-2.96-2.54-4.45.55-.3,1.18-.57,1.69-.85l3.18,3.39c6.58-3.8,31-12.51,34.73-14.82,5.99-3.71-.38-3.06,2.33-7.62.47-.21,3.82-2.03,3.6-2.54-8.55-3.76-39.42-24.45-41.72-25.41-2.47-3.09-.42-2.96-.42-6.14-2.65-.67-3-1.48-3.18-1.48-1.74.02-28.25,12.14-31.13,15.25-1.43-1.17-4.81-3.57-6.35-4.24,13.09-5.54,32.83-19.3,45.11-13.55,3.28,1.19,50.64,31.45,59.72,36,8.67,7.62,8.83,13.02,9.53,23.72Z"/>
        <g>
          <path class="cls-13" d="M219.24,89.47c-1.34.84-2.34,1.47-3.81,2.12,1.03-5.7.75-7.8,0-13.13,1.69,3.03,3.14,7.61,3.81,11.01Z"/>
          <path class="cls-16" d="M262.44,66.18c-2.29,1.45-.3-.18-2.12-.42.53-8.35-4.4-12.59-7.41-19.91,4.3,6.08,8.78,12.76,9.53,20.33Z"/>
          <g>
            <path class="cls-15" d="M249.73,66.18c2.18,4.01-12.64,11.99-11.86,6.14.21-1.49,10.02-4.87,11.86-6.14Z"/>
            <path class="cls-13" d="M254.39,69.57c-1.25.24-3.57-.42-5.08-.42.08-.13.94-2.71.42-2.96,1.04-.72,2.16-1.32,2.96-2.33.11-1.8-.04-3.54-.42-5.29,3-1.12,4.14,7.03,2.12,11.01Z"/>
            <path class="cls-16" d="M254.39,69.57c2.02-3.98.88-12.13-2.12-11.01-.98-4.5-5.02-8.81-8.05-12.07,7.5,3.37,16.9,21.77,10.16,23.08Z"/>
            <path class="cls-16" d="M234.49,77.19l-.85.85c-.27-2.25-1.25-4.36-1.69-6.56-11.04-18.75.87-4.36,2.54,5.72Z"/>
          </g>
          <path class="cls-19" d="M234.91,81.85c.3,2.34-1.08,9.13-1.69,11.01-.16-4.92.86-9.95.42-14.82l.85-.85c.3,1.8.42,2.79.42,4.66Z"/>
          <path class="cls-37" d="M215.43,78.46c0-.06-.9-.02-.21-1.27,1.11.74.06,1,.21,1.27Z"/>
        </g>
      </g>
      <g>
        <path class="cls-7" d="M95.99,45c-2.5,1.16-3.35,4.32-5.08,6.35-1.06-.47-1.9-1.25-2.96-1.69-.02-1.08.96-1.61,1.69-2.12,8.26-5.75,8.77-9.28,6.35-2.54Z"/>
        <path class="cls-34" d="M95.99,45c-2.95,8.25-1.48,7.94-5.08,6.35,1.74-2.04,2.58-5.2,5.08-6.35Z"/>
      </g>
      <g>
        <path class="cls-9" d="M167.14,37.38q.21,12.28.42,24.56c-1.11-.81-3.18-1.33-3.81-1.69-.28-.16-2.68-2.61-5.51-3.39-7.52-4.07-4.76-4.39-5.93-11.86,5-2.54,9.67-5.3,14.82-7.62Z"/>
        <path class="cls-38" d="M174.39,34.41c-2.53,7.52,1.13,22.9-.42,30.49-1.69-.18-4.62-2.59-5.93-2.54-.19-12.3-.22-12.7-.42-24.99,1.86-.84,4.09-1.33,5.51-2.96.46-.05,1.05.09,1.27,0Z"/>
      </g>
      <g>
        <g>
          <path class="cls-12" d="M160.79,15.27c-.8-.3-1.62-.79-2.33-1.27-7.32,3.04-44.43,20.48-47.22,23.29-8.47-2.34-11.58,20.41-37.48,26.68-.57-1.37-9.63-3.01-10.16-2.96-13.75,3.4-28.36,13.06-41.51,18.64-3.13,3.24,1.84,7.16-.21,9.32-6.93,6.75-17.05,10.46-13.55,22.02h-.42c-9.75-4.11-9.02-17.03-4.24-24.78,5.2-8.39,11.83-7.04,12.49-7.41-.18-6.79,34.53-17.7,41.51-23.29,8.49,3.26,15.41-4.26,18.21-4.66,1.98-.28,5.8,2.37,12.07-.85,5.53,2.35,4.88,6.1,8.05-4.66,2.41-6.74,1.9-3.2-6.35,2.54q3.71-8.68,7.41-17.36l49.55-24.56c2.6-.34,16.12,6.57,14.19,9.32Z"/>
          <path class="cls-13" d="M111.24,36.95c-1.33,1.34-3.94,6.5-4.66,8.47-2.72-.85-8.36,6.42-8.89,10.59-.22-.06-.57.03-.85,0-.35-1.52-1.66-2.38-2.96-2.96,8.5-7.42,11-17.91,17.36-16.09Z"/>
          <path class="cls-29" d="M106.58,45.42c-1.11,3.03-2.39,8.29-2.54,11.44l-4.66.42c-.06-.09-1.48-1.21-1.69-1.27.54-4.16,6.17-11.43,8.89-10.59Z"/>
          <path class="cls-15" d="M104.04,56.86c-.12,2.53,1.07,5.08.42,7.62-4.83-4.14-4.82-6.84-5.08-7.2l4.66-.42Z"/>
        </g>
        <g>
          <path class="cls-21" d="M174.34,27.99h.42c-.2,1.46.41,1.2.42,1.27.42,2.34.48,6.09-2.54,5.51-1.09.13-2.52.96-4.87-1.27-9.87,5.53-20.45,10.1-30.28,15.67-1.32-3.37-2.41-1.68-5.13-3.17l.03-1.55c9.27-5.59,21.24-8.61,29.45-15.19.32-.17,1.38.17,1.69,0,.51-.27-.51-.58,0-.85.47-.24,3.99.21,2.33-1.69,1.9-.84,3.63-2.14,5.72-2.54-1.79,1.73,3.39,5.72,2.75,3.81Z"/>
          <path class="cls-21" d="M137.5,48.81c-6.32,3.58-13.08,6.82-18,12.28,1.15-9.48,3.18-12.89,12.49-15.67,3,1.87,4.13-.13,5.51,3.39Z"/>
          <path class="cls-31" d="M131.99,45.42c-4.36,1.87-7.53,2.09-10.16,6.35-.03-6.26,37.15-21.41,44.05-25.41,1.66,1.9-1.86,1.45-2.33,1.69-.51.27.51.58,0,.85-.32.17-1.37-.17-1.69,0-8.19,7.25-21.63,8.78-29.86,16.52Z"/>
          <g>
            <path class="cls-22" d="M160.79,14.93c5.16,2.29,11.57,7.05,13.55,12.71.64,1.91-4.54-2.08-2.75-3.81-8.46,3.39-43.91,20.89-48.92,25.2-1.54,4.32-2.55,7.51-3.18,12.07,13.63-12.79,32.34-18.6,48.28-27.95,2.35,2.23,3.78,1.4,4.87,1.27-13.19,7.62-39.9,19.66-51.46,26.26-2.62,1.94-.77,1-.64,2.96-4.11,4.72-12.62,5.78-16.09.85-.9-9.25.7-20.03,6.78-27.53,2.79-2.82,39.9-20.26,47.22-23.29.71.48,1.53.97,2.33,1.27Z"/>
            <path class="cls-2" d="M116.32,56.86c-.98-2.28.26-5.33-2.54-6.35.41-6.78,1.36-9.88,6.99-13.55,1.78-1.16,36.04-18.22,38.12-18.64,3.65-.72,4.77,1.81,7.84,3.18-14.52,7.86-30.21,15.25-45.11,23.08-3.32,3.24-4.49,7.86-5.29,12.28Z"/>
            <path class="cls-1" d="M116.32,56.7c-.33,1.82-.63,3.44-.42,5.29l-.79.17c-1.37-3.86-1.57-7.75-1.33-11.82,2.8,1.02,1.56,4.07,2.54,6.35Z"/>
          </g>
        </g>
      </g>
      <path class="cls-28" d="M238.3,102.6c.68-.03.41,2.01.42,4.24q-20.54,10.16-41.08,20.33c.12-2.35.16-4.41.42-6.78,13.37-5.9,27.15-11.27,40.24-17.79Z"/>
      <path class="cls-28" d="M205.69,96.67c5.64,2.53-10.02,18.39,5.93,8.89.05.35.5.85.64,1.27,2.28-2.26,5.35-2.63,8.26-3.81-6.69,3.94-14.23,7.33-21.18,11.01q.85-5.93,1.69-11.86c1.5.67,1.76-2.55,2.12-5.08.72-.39,2.08-.26,2.54-.42Z"/>
      <path class="cls-25" d="M269.22,78.88c-11.2,7.36-23.71,13.06-36,18.21,1.7-1.26,1.59-2.03,1.69-2.12,4.84-2.77,27.11-14.61,34.31-16.09Z"/>
      <g>
        <path class="cls-22" d="M273.45,84.39c-.59.11-8.56,4.55-10.59,5.51-.36.17-5.43.68-6.56,3.81-1.69-1.65-5.98,2.83-9.95,3.81-1.65-.32-1.46.94-2.12,1.27-13.88,9.18-31.02,14.54-46.16,21.6.26-2.3.2-5.08,1.27-6.35,6.38-3.19,12.69-6.52,19.06-9.74-5.8,4.62,15.99-5.96,16.73-6.78.53-.58-.6-.18-.64-.85,13.18-5.57,25.86-12.2,38.12-19.48,1.99,1.49.13,4.96.85,7.2Z"/>
        <path class="cls-32" d="M218.39,104.3c.76-.38,1.89-.76,2.12-1.27,4.96-1.95,8.97-4.51,13.98-6.35.03.67,1.16.27.64.85-.74.81-22.53,11.39-16.73,6.78Z"/>
      </g>
      <g>
        <path class="cls-9" d="M262.86,89.9c-.46,1.94-.94,3.97-1.27,5.93-.43,2.5-1.92,3.51.42,4.24-3.04,3.68-16.69,9.81-22.45,12.28-2.1-1.94.2-8.61-1.27-9.74,2.01-1,4.74-3.22,5.93-3.81.52,1.15,2.22-.14,2.12-1.27,3.97-.98,8.26-5.46,9.95-3.81,1.13-3.13,6.2-3.64,6.56-3.81Z"/>
        <path class="cls-20" d="M246.35,97.52c.1,1.13-1.6,2.42-2.12,1.27.66-.33.47-1.59,2.12-1.27Z"/>
      </g>
      <path class="cls-22" d="M75.66,168.25c7.35,2.4,14.47.73,21.81-2.54,1.77-.76,10.03-4.56,8.68-5.08,14.5-6.22,31-15.91,45.74-22.02,1.16.91-1.56,4.38-2.12,6.78-.05.05-1.01.23-.85,1.27-9.12,4.14-18.19,8.56-27.11,13.13-1.14-.23-.74-1.71-1.06-1.69-2.36,5.65-15.05,9.43-20.54,13.13-5.3.01-11.54,6.4-20.33,6.35-10.02,1.08-43.41-26.51-54.64-33.46-4.71-3.35-13.25-9.09-16.09-12.71.42-.32,2.37-2.36,2.54-2.96,12.53,7.75,24.81,15.95,37.06,24.14,10.05,6.72,14.12,12.84,26.89,15.67Z"/>
      <path class="cls-38" d="M79.9,177.57c.28,1.55-.89,2.67.42,2.96-3.33.79-6.53,1.72-9.74.42,8.33-1.56-48.52-33.24-45.32-36.85,11.28,7.02,44.59,34.46,54.64,33.46Z"/>
      <path class="cls-9" d="M73.54,181.8c2.21.62,3.56,1.09,5.93,1.27l-2.96,3.81c-1.53-.11-3.03-.74-4.24-1.69-1.81-2.21,1.21-1.07-1.27-4.24.86.31,1.65.6,2.54.85Z"/>
      <g>
        <path class="cls-3" d="M262.04,71.68l-.15.44c-.39.09-.51.56-.7.83-.67-.04-.16-1-1.06-.85-1.38.23-21.84,10.71-25.2,12.28.04-.55,0-1.81,0-2.54.04,3.13,20.48-10.67,23.93-10.59,1.26-.95,1-1.56,1.06-1.7l2.12,2.12Z"/>
        <path class="cls-7" d="M261.17,73.08c-2.62,4.09,1.04,4.98,1.27,8.05-3.53,1.65-26.37,12.96-27.53,13.98l-2.12-2.12h.42c.27-.34,1.63-7.59,1.69-8.47,3.36-1.57,23.82-12.05,25.2-12.28.9-.15.39.81,1.06.85Z"/>
      </g>
      <path class="cls-14" d="M109.54,171.64c.53.77-.27,1.9,0,3.39-11.47,4.93-20.03,12.04-33.04,11.86l2.96-3.81c8.37.64,22.53-6.94,30.07-11.44Z"/>
      <g>
        <path class="cls-7" d="M96.84,56.01c-.42,3.94-5.17,3.57-8.47,8.47-.05-.08-1.24-1.02-1.69-.85.75-1.8,1.68-3.76,2.54-5.51.1-.2,1.67-1.82.85-2.12,1.32-.94,2.58-1.89,3.81-2.96,1.3.59,2.62,1.44,2.96,2.96Z"/>
        <path class="cls-9" d="M89.21,58.13l-11.86,7.62c-.59-.33-2.62-.88-2.54-1.48,5-2.86,10.38-5.1,15.25-8.26.82.3-.75,1.92-.85,2.12Z"/>
        <path class="cls-35" d="M97.69,56.01c.22.06,1.63,1.19,1.69,1.27-.23,1.23,5.98,10.89,11.86,10.59.09.59,1.17.51,1.27,1.06.14.79.22,15.32,0,16.09-.29,1.04-1.28-.09-1.27.64-3.07-1.71-5.89-3.75-8.89-5.51-3.26-6.55-4.39-14.27-8.47-20.33,1.96-1.76,3.28-2.42,2.96-3.81.27.03.63-.06.85,0Z"/>
        <path class="cls-10" d="M118.44,89.9c-2.03-.87-5.1-3.06-7.2-4.24-.01-.73.98.4,1.27-.64.22-.78.14-15.3,0-16.09-.1-.55-1.18-.47-1.27-1.06,2.3.07,4.84-.9,6.78-2.12q.21,12.07.42,24.14Z"/>
        <path class="cls-36" d="M120.98,75.07c.26,4.8-.47,9.59-.42,14.4-.05.04.08.6-.42,1.27-.58-.22-1.12-.6-1.69-.85q-.21-12.07-.42-24.14c.97-.61,1.55-1.55,2.54-2.12.25,3.69.42,7.76.42,11.44Z"/>
        <path class="cls-33" d="M102.34,80.15c-2.31-1.35-4.49-2.86-6.78-4.24.93-2.76-7.04-5.98-7.2-11.44,2.02-3.05,4.99-4.19,5.51-4.66,4.08,6.06,5.21,13.78,8.47,20.33Z"/>
        <path class="cls-33" d="M86.67,63.64c-.81,1.93-1.29,4.01-2.12,5.93-2.36-1.33-4.85-2.48-7.2-3.81l11.86-7.62c-.86,1.75-1.79,3.71-2.54,5.51Z"/>
        <path class="cls-9" d="M88.37,64.48c.17,5.49,8.07,8.58,7.2,11.44-3.65-2.19-7.31-4.26-11.01-6.35.83-1.92,1.31-4,2.12-5.93.45-.17,1.64.77,1.69.85Z"/>
      </g>
      <path class="cls-9" d="M137.92,96.25c-1.48-.67-3.16-1.59-4.66-2.12,1.69-1.58,3.19-3.3,5.08-4.66l-.42,6.78Z"/>
      <g>
        <path class="cls-36" d="M225.59,47.05l-41.29-25.41-9.53,6.35-.46-.2c-.24-1.17-.97-2.24-1.66-3.18l10.8-5.93c14.91,9.18,30.02,18.13,45.74,25.84.91,1.31-2.73,2.05-3.6,2.54Z"/>
        <path class="cls-25" d="M225.59,46.7c-1.66.94-8.06,4.75-9.53,4.66-13.96-6.96-27.21-14.95-40.87-22.45-.01-.07-.62.19-.42-1.27l9.53-6.35q20.65,12.71,41.29,25.41Z"/>
      </g>
      <path class="cls-36" d="M175.19,37.8c.28.79-.26,1.97,1.06,2.54,5,3.17,22.98,13.38,13.34,18.21-.97-2.08.28-4.7-.64-4.66-.85.04-12.59,7.69-15.04,8.05-.26-7.35-1.38-19.82-.42-26.68.98-.21,1.33,1.51,1.69,2.54Z"/>
      <g>
        <path class="cls-33" d="M202.3,11.54c2.3.96,33.17,21.65,41.72,25.41-.15.77-3.48,2.81-4.45,2.54-12.69-9.86-29.04-15.31-39.39-28.38,1.22-.93,1.22.05,2.12.42Z"/>
        <path class="cls-35" d="M239.57,39.5c-.16.06-.66,1.59-3.18,1.27q-22.45-12.49-44.89-24.99l8.68-4.66c10.35,13.06,26.69,18.52,39.39,28.38Z"/>
      </g>
      <path class="cls-28" d="M189.59,58.55c-4.75,3.55-10.46,6.1-15.67,8.89.11-1-.46-1.44-.42-2.54,0-.15.54.49.42-2.96,2.45-.35,14.18-8.01,15.04-8.05.91-.04-.33,2.58.64,4.66Z"/>
      <path class="cls-12" d="M238.72,110.22c.11,1.06.03,1.11.85,2.12-.66.26-1.09-.48-1.48-.85-36.62,16.47-67.67,36.58-104.4,52.52.98-3.93,28.2-13.06,31.77-17.36,1.2,0,.99.06,2.96-.85,23.66-11.81,45.88-25.59,70.31-35.58Z"/>
      <path class="cls-26" d="M164.6,136.48c.02.9-.44.94-.42,1.27-4.32,1.44-8.87,4.56-12.71,5.51,4.37-7.21,4-5.83,12.28-10.59,1.28-.37.78,1.36.85,3.81Z"/>
      <path class="cls-25" d="M162.91,130.55c.2.8.42,1.42.85,2.12-9.12,4.48-8.7,5.44-13.98,12.71.56-2.39,3.28-5.87,2.12-6.78,2.37-3.91,6.9-6.01,11.01-8.05Z"/>
      <g>
        <g>
          <path class="cls-22" d="M198.06,81.42c2.97,5.28,6.35,6.67,5.08,15.67-.69,6.89-1.44,5.12-5.93,3.39-5.88-2.51-3.5-.93-11.44,3.39-6.59,4.07-13.66,7.13-20.33,11.01-2.99-5.05-7.83-10.84-10.59-16.52q19.48-10.38,38.96-20.75c1.24,1.29,2.93,2.55,4.24,3.81Z"/>
          <path class="cls-31" d="M191.07,85.24c1.4.07,1.94,4.39,1.48,5.72-.39,1.13-18.22,10.35-20.75,11.86.5-1.18-.5-6.04-.42-6.35.27-1.1,18.56-11.28,19.69-11.22Z"/>
        </g>
        <g>
          <path class="cls-33" d="M153.17,98.79c4.51,7.89,8.59,16.14,14.82,22.87.31,7.97-.69,16.19.42,24.14-1.28.65-2.02.8-2.12.85-.58-2.74,1.18-9.04-1.69-10.16-.07-2.46.43-4.18-.85-3.81-3.42-8.15-4.91-23.02-12.28-27.95,1.14-1.95.43-3.61.42-5.93.4-.05.91.09,1.27,0Z"/>
          <path class="cls-9" d="M197.22,100.48c1.25.53,2.69.88,3.81,1.69q-.85,5.93-1.69,11.86c-1.77,3.29-1.27,9.15-1.69,13.13,0,.15-.94,1.68,0,2.96-.68.35-2.3,1.75-4.66,2.96l.42-11.01c.43-.39.88-.64,1.27-1.06.98-4.29.4-20.93,2.54-20.54Z"/>
          <path class="cls-33" d="M197.22,100.48c-2.14-.43-1.57,16.28-2.54,20.54-.97.98-1,.81-2.54,1.48-5.59-3.2-5.52-12.99-6.35-18.64,7.93-4.32,5.56-5.9,11.44-3.39Z"/>
          <path class="cls-28" d="M176.04,109.38c1.36,2.52,7.54,3.08,10.59,2.12.07.4-.09.89,0,1.27-5.8,1.46-13.54,5.84-18.64,5.93-1.03-1.17-1.75-2.48-2.54-3.81,3.29-2.26,7.12-3.63,10.59-5.51Z"/>
          <path class="cls-13" d="M185.78,103.87c.64,2.55.39,5.02.85,7.62-3.05.96-9.23.41-10.59-2.12,3.27-1.77,6.46-3.72,9.74-5.51Z"/>
          <path class="cls-10" d="M154.86,98.37c3.32,8.29,12.38,14.81,13.13,23.29-6.23-6.73-10.31-14.98-14.82-22.87.08-.02-.23-.64,1.69-.42Z"/>
          <path class="cls-7" d="M186.63,112.77c.43,1.92,3.31,9.61,5.51,9.74-4.17,2.75-18.3,9.14-24.14,12.28-.17-5.45.18-10.72,0-16.09,5.1-.09,12.83-4.47,18.64-5.93Z"/>
          <path class="cls-36" d="M193.4,122.08l-.42,11.01c-8.2,4.24-16.34,8.5-24.56,12.71-.84-3.6-.32-7.36-.42-11.01,6.68-3.28,20.29-10.21,25.41-12.71Z"/>
          <path class="cls-33" d="M166.3,146.65c-.16.08-.68-.08-.85,0-1.87-3.09-1.48-6.81-.85-10.16,2.88,1.13,1.11,7.43,1.69,10.16Z"/>
        </g>
      </g>
      <path class="cls-36" d="M155.29,134.79c-3.48,4.86-8.83,5.99-13.98,8.47-.38-.55-3.79.27-5.51.85.02-1.03-1.06-2.1-1.27-2.96l19.48-9.32c.25,1.33.3,1.84,1.27,2.96Z"/>
      <path class="cls-12" d="M233.64,85.79c-.1,2.33-.8,4.79-.42,7.2-10.3,4.35-10.55,5.05-20.75,9.74.32-7.38.85-6.01.85-6.35,6.85-3.25,13.11-7.93,20.33-10.59Z"/>
      <path class="cls-36" d="M234.91,94.98c-.1.09,0,.86-1.69,2.12-6.68,3.86-14.54,5.67-20.96,9.74-1.12-1.16-.08-2.78.21-4.24l20.33-9.74,2.12,2.12Z"/>
      <g>
        <path class="cls-36" d="M3.16,107.26c-.94,4.5,1.71,8.43,1.69,12.49,2.47,1.98,3.26,5.96,6.35,6.99.02.47-.13.88.42.85-.02.14.02.29,0,.42-1.09.51-7.24-5.39-8.05-5.93-.14-.15-1.09-2.09-2.54-3.18v-15.04c.07.19,1.99,3.23,2.12,3.39Z"/>
        <path class="cls-26" d="M10.01,112.26c8.89,5.02,17.17,11.04,26.05,16.09.84-.02,3.28-2.64,4.02-3.39-1.84,3.51-.8,7.69,3.39,8.89.21.35.55,3.79.42,5.08-2.8-1.54-6.87-3.82-7.2-6.99-9.52-5.2-18.18-11.67-27.11-18-.2-.61-1.36-2.57-1.69-2.96h.42c.48.72,1.03.85,1.69,1.27Z"/>
        <path class="cls-9" d="M7.9,110.65c2.97,4.5,2.56,10.85,3.39,16.09-4.15-.85-4.5-13.15-6.35-17.79.11.13,2.67,1.34,2.96,1.69Z"/>
        <path class="cls-36" d="M4.93,108.95q1.91,7.84,3.81,15.67c-1.35-1.62-2.27-3.4-3.81-4.87.02-4.07-2.64-8-1.69-12.49.28.34,1.06.93,1.69,1.69Z"/>
        <path class="cls-33" d="M34.16,130.55c.73,3.86,2.91,11.5,1.27,11.44-5.07-3.16-21.7-15.27-23.08-15.25-.31,0-.04.93-.64.85-.55.03-.41-.37-.42-.85-.16-4.39-1.35-8.75-1.69-13.13,7.9,6.02,16.5,11.17,24.56,16.94Z"/>
        <path class="cls-4" d="M43.9,138.6c.08,2.84-.17,5.66.42,8.47-4.18-2.15-4.96-2.63-8.89-5.08,1.64.06-.54-7.57-1.27-11.44.41.29,1.39,0,2.54,1.06.34,3.17,4.38,5.44,7.2,6.99Z"/>
      </g>
      <g>
        <path class="cls-13" d="M23.99,90.32c-3.11,4.06-6.32,8.15-9.32,12.28-2.79,3.85-2.93,2.13-4.66,9.32-8.36-9.7,5.34-17.21,11.86-23.29,1.14-.06,1.53,1.02,2.12,1.69Z"/>
        <path class="cls-16" d="M12.98,107.68c-.23,1.94.31,3.99,0,5.93-.98-.6-1.97-1.06-2.96-1.69,1.73-7.19,1.87-5.47,4.66-9.32-1.17,2.27-1.39,2.52-1.69,5.08Z"/>
      </g>
      <g>
        <path class="cls-12" d="M152.32,45c1.17,7.47-1.59,7.79,5.93,11.86-.55-.15-1.61,0-2.33-.85q-17.47,9.53-34.94,19.06c0-3.68-.18-7.75-.42-11.44-.13-1.96-1.99-1.03.64-2.96,2.17-1.6,25.44-12.78,31.13-15.67Z"/>
        <path class="cls-13" d="M173.5,64.91c-.04,1.1.53,1.54.42,2.54-16.19,8.67-33.08,16.07-49.77,23.72l-.21.85c-1.18-.65-2.58-.8-3.81-1.27.51-.67.37-1.23.42-1.27.21-.18,1.16,1.87.85-3.18,5.02-3.48,43.56-23.84,46.16-23.93,1.31-.05,4.24,2.36,5.93,2.54Z"/>
        <path class="cls-37" d="M158.25,56.86c2.83.78,5.23,3.23,5.51,3.39-13.48,7.95-28.18,14.77-42.78,20.75,0-1.97,0-3.96,0-5.93q17.47-9.53,34.94-19.06c.72.86,1.78.7,2.33.85Z"/>
        <path class="cls-12" d="M168.04,61.94v.42c-2.6.09-41.15,20.45-46.16,23.93.31,5.04-.64,3-.85,3.18-.25-2.77.42-5.75.42-8.47,14.6-5.98,29.3-12.8,42.78-20.75.63.37,2.7.89,3.81,1.69Z"/>
      </g>
      <path class="cls-14" d="M238.72,106.84c0,1.1-.11,2.32,0,3.39-14.08,5.84-27.59,12.89-41.08,19.91-.94-1.28,0-2.82,0-2.96q20.54-10.16,41.08-20.33Z"/>
      <g>
        <path class="cls-12" d="M270.06,95.4c-.32,24.71.86,49.42.42,74.12l-5.51,2.12c2.21-23.63-1.5-48.74-.85-72.85,1.98-1.31,4.03-2.19,5.93-3.39Z"/>
        <g>
          <path class="cls-12" d="M70.16,184.77c-8.04.89-49.32-32.46-58.66-39.81l-.64,66.92c-1.37-1.03-3.18-2.05-4.66-2.96.1-23.01-.5-46.04.42-69.04,15.05,12.74,48.77,34.35,63.53,44.89Z"/>
          <path class="cls-13" d="M10.86,211.87c19.58,14.78,39.55,29.27,60.57,41.93.08,1.62-.06,3.25,0,4.87.28.27,1.39.51,1.69,1.06l-.85,1.27c-22.4-14.83-44.45-31.12-66.07-46.16-.14-2.18.03-3.86,0-5.93,1.48.92,3.29,1.93,4.66,2.96Z"/>
          <path class="cls-13" d="M13.4,219.92l.85,4.45c-.85,1.27-6.7-4.27-7.62-5.29-.93-2.87-.32-2.61-.42-4.24,3.08-.41,5.88,4.09,7.2,5.08Z"/>
          <path class="cls-5" d="M70.16,184.77c.14.15.95.68,1.27.85.79,21.77-1.06,46.88,0,68.19-21.01-12.66-40.98-27.15-60.57-41.93l.64-66.92c9.4,7.4,50.55,40.66,58.66,39.81Z"/>
        </g>
        <path class="cls-12" d="M264.13,98.79c-.65,24.1,3.06,49.23.85,72.85-82.57,40.9-90.61,46.91-174.07,86.82,3.33-6.9-.98-59.97,1.27-74.97,6.82-2.3,10.62-4.83,16.31-7.2,3.89.55,23.04-9.5,24.99-10.59.45-.58.09-1.58.21-1.69,36.72-15.93,67.8-36.06,104.4-52.52,2.73,2.62,14.27-6.08,18.21-7.2,7.56-4.58,3.95-3.47,7.84-5.51Z"/>
        <g>
          <path class="cls-13" d="M270.97,172.93c.02.77.02,1.54,0,2.3l-.73,1.01c-64.46,28.39-125.36,64.34-189.02,94.5-.07-5.59-4.72-8.08-8.04-11.42-.02,0,.85-73.28.84-73.28,3.59,1.71,7.42.79,11.01,0v75.6c3.22-.15,173.84-86.93,182.27-90.93l3.67,2.22Z"/>
          <path class="cls-21" d="M72.27,185.19c.05.06,1.2.81,1.27.85q-.42,36.64-.85,73.27c-4.48-21.29.54-50.38-1.27-73.69l.85-.42Z"/>
          <path class="cls-27" d="M80.74,270.74c-12.1,3.14-5.41-5.53-8.47-9.74l.85-1.27c3.28,3.14,7.56,5.65,7.62,11.01Z"/>
          <path class="cls-12" d="M92.66,183.5c-2.25,15.04,2.06,68.03-1.27,74.97-.56.25-6.09,3.67-6.35,3.18v-75.6c2.53-.55,5.15-1.71,7.62-2.54Z"/>
        </g>
        <path class="cls-28" d="M110.81,176.3c-7.02.51-10.9,5.09-18.64,7.2l17.36-8.47c.08.45.79,1.13,1.27,1.27Z"/>
      </g>
      <path class="cls-28" d="M164.6,144.95q-15.25,7.41-30.49,14.82c.13-2.13.47-4.24.42-6.35,9.57-5.3,20.13-8.15,29.65-13.55.01,1.95-.11,3.11.42,5.08Z"/>
      <path class="cls-12" d="M110.04,171.21c-9.64,5.96-25.31,15.04-36.42,10.59,13.55-1.33,24.44-10.04,36.42-15.67v5.08Z"/>
      <path class="cls-36" d="M104.89,157.24c.41-.1,1.2.86,1.27.85-.37,5.46-14.69,7.9-19.48,11.01-5.9.71-5.74.32-11.01-.85,2.93.03-.79-.51-1.69-3.39,14.04,2.65,19.07-4.63,30.92-7.62Z"/>
      <path class="cls-25" d="M141.31,143.26c-11.1,5.44-25.57,13.85-36.85,17.79,1.12-.96,2.02-1.41,1.69-2.96,8.97-1.64,24.96-15.01,35.15-14.82Z"/>
      <g>
        <path class="cls-9" d="M134.53,153.43c.04,2.11-.29,4.23-.42,6.35-.1,1.59-1.05,2.01.42,2.96-1.77,2.05-.23.93-1.06,2.96-.77.99-19.87,9.4-22.66,10.59-2.28-.63-.67-3.68-1.27-4.66,1.44-1.26,9.02-5.29,9.74-6.56.09-.18-.44-3.39-.42-4.02,1.32-1,.63.5,2.33,0,3.12-3.72,8.95-5.01,13.34-7.62Z"/>
        <path class="cls-10" d="M110.04,171.21v-5.08c2.98-1.52,5.88-3.57,8.89-5.08-.01.63.51,3.84.42,4.02-.48,1-7.86,5.25-9.32,6.14Z"/>
      </g>
      <path class="cls-3" d="M100.23,171.21c-3.07.94-22.9,14.73-20.33,6.35,8.79.05,15.03-6.34,20.33-6.35Z"/>
      <path class="cls-36" d="M164.18,139.87c-4.59,3.25-10.31,4.56-15.25,6.78-.16-1.04.79-1.22.85-1.27.72-.73,1.16-1.23,1.69-2.12,3.84-.95,8.39-4.07,12.71-5.51.03.7,0,1.41,0,2.12Z"/>
      <path class="cls-24" d="M86.67,169.1c4.06-2.1,15.17-5.81,17.79-8.05.83.17,1.13-.17,1.69-.42-2.12,3.24-14.65,7.74-19.48,8.47Z"/>
      <path class="cls-12" d="M121.83,159.78c.21,1.27-1.55,1.93-2.12.85,2.16-4.57.15-1.74,2.12-.85Z"/>
      <g>
        <g>
          <path class="cls-12" d="M79.05,61.94c-1.4.78-2.72,1.74-4.24,2.33,14.66,7.65,29.26,17.17,43.62,25.62,6.17,3.06,13.47,2.63,19.48,6.35.44.2,3.44,2.25,3.6,2.12.7-1.39-.21-2.3-.21-2.54,1.12-.35,2.35,1.85,3.81,3.39-2.42.42,4.96,6.78,7.62,14.19.92,2.57,2.39,5.18.42,7.41-.71.81-12.76,7.57-15.25,8.05-.4-9.89-1.15-6.49-2.12,2.96l-29.22,13.98c-.44-.99-1.1-1.85-1.27-2.96-.02-.12.88-.67.42-2.33-.75-2.72-6.41-12.77-8.68-15.88,2.54,6.24,7.77,14.92,7.41,21.6q-9.53,4.87-19.06,9.74c-.28-10.67-3.38-20.98-6.35-31.13-4.11-.51-6.38-2.21-9.74-4.02-1.42.37-5.16-3.4-6.14-3.39-1.8,2.88-14.21,17.32-14.61,18.42-.35.97.49,2.58-.42,3.6-1.37-1-2.88-1.94-4.24-2.96-1.33-11.46,2.57-16.68,8.89-25.62l-.85-.21c-.9-1.22-23.98-16.01-25.41-16.52-.52-1.64-2.95-5.21-4.66-5.51,2.05-2.16-2.92-6.08.21-9.32,9.18-3.37,17.33-9.31,26.26-13.13,1.71-.73,14.44-5.44,15.25-5.51.53-.04,9.6,1.59,10.16,2.96l5.29-1.69Z"/>
          <g>
            <g>
              <path class="cls-25" d="M112.93,100.48c-3.36,1.96-7.07,3.43-10.38,5.51-15.74-9.81-32.06-18.93-47.22-29.65l9.95-6.78c13.82,10.82,36.49,19.85,47.65,30.92Z"/>
              <path class="cls-6" d="M112.93,100.48c-11.15-11.07-33.83-20.1-47.65-30.92l-9.95,6.78c-.54-.38-2.93-1.02-4.24-2.75l13.34-6.56c17.05,10.74,34.77,21.1,51.46,31.98-.96.54-2.02.93-2.96,1.48Z"/>
            </g>
            <g>
              <path class="cls-36" d="M89.21,110.6c-2.44,1.2-4.61,3.72-7.49,3.34-8.7-5.19-17-11.06-25.55-16.47l9.74-1.27c4.53,2.76,10.67,5.48,15.04,8.47,2.76,1.89,4.99,5.23,8.26,5.93Z"/>
              <path class="cls-10" d="M89.21,111.07c-3.27-.7-5.5-4.04-8.26-5.93-9.8-5.85-20.6-10.96-29.22-18.64l-9.95,2.54c-1.21-.77-2.57-1.29-3.81-2.12l8.05-6.78c10.57,5.75,31.87,22.53,45.95,29.22.39.95-2.39,1.47-2.75,1.69Z"/>
              <path class="cls-7" d="M65.92,96.67l-9.74,1.27c-4.76-3.01-9.63-5.87-14.4-8.89l9.95-2.54c4.39,3.63,9.35,7.21,14.19,10.16Z"/>
              <path class="cls-7" d="M46.01,80.15l-8.05,6.78c-6.3-4.21-6-2.17,6.14-8.47.92.61,1.79,1.63,1.91,1.69Z"/>
            </g>
            <g>
              <path class="cls-13" d="M124.79,130.98l-.85-4.24c11.4-6.19,1.81-9.81,1.91-16.52,1.53,2.6,11.42,19.14,9.32,20.75-2.94-4.01-4.36-2.22-10.38,0Z"/>
              <path class="cls-11" d="M123.94,126.74l.85,4.24c-6.86,2.53-15.79,8.95-16.52,5.29-.45-2.26,12.51-7.44,15.67-9.53Z"/>
              <path class="cls-13" d="M105.31,142.84l-.85.85c-.86-5.39-5.13-13.88-7.41-19.06,2.2,4.04,10.31,14.59,8.26,18.21Z"/>
            </g>
            <path class="cls-30" d="M137.92,128.86c-.02,1.55-.86,3.43-.42,5.08-1.48.35-1.2,1.07-2.12-.85,1.19-2.65,1.12-12.89,2.12-9.95.15.45.44,4.7.42,5.72Z"/>
          </g>
        </g>
        <g>
          <path class="cls-13" d="M68.46,120.81c-2.57,5.54-4.63,11.23-6.78,16.94-1.46,3.89-2.21,9.78-4.66,8.05-2.83-2.3-6.09-4-8.89-6.35.91-1.02.07-2.63.42-3.6.4-1.11,12.81-15.55,14.61-18.42.52-.07,4.47,2.98,5.29,3.39Z"/>
          <path class="cls-16" d="M69.31,121.05c-1.93,5.23-5.64,11.8-7.2,16.94h-.42c2.14-5.71,4.2-11.4,6.78-16.94.17.08.68-.08.85,0Z"/>
        </g>
        <g>
          <path class="cls-13" d="M153.59,125.47c-3.91,1.32-13.83,7.93-16.09,8.47-.43-1.66.4-3.53.42-5.08,2.49-.48,14.54-7.24,15.25-8.05.45,1.55.33,3.08.42,4.66Z"/>
          <path class="cls-12" d="M153.59,125.47c.12,1.92.07,4.48.42,6.35l-19.48,9.32c-.39-2.61-.46-5.65.85-8.05.36,4.3,14.37-6.96,18.21-7.62Z"/>
        </g>
        <path class="cls-12" d="M104.62,150.04c.28,2.39.62,4.76.42,7.2-11.84,3-16.88,10.28-30.92,7.62-.64-.12-1.43.26-2.54-1.69,4.39-1.94,9.62-1.62,13.98-3.81,5.58-2.15,13.01-7.15,19.06-9.32Z"/>
        <g>
          <path class="cls-12" d="M26.53,94.13c-.49-.17-.72-.51-1.06-.85-2.83,3.77-5.66,7.59-8.68,11.22-2.76,3.58-.53,4.62-3.81,3.18,1.05-6.95,7.34-11.65,11.01-17.36.93,1.07,2.27,2.33,2.54,3.81Z"/>
          <path class="cls-16" d="M51.94,110.65l.85.21c-5.94,8.39-8.88,12.12-9.32,22.66-3.01-1.2-4.38-2.64-4.24-5.93,5.89,3.59,6.48-15.15,12.71-16.94Z"/>
          <path class="cls-13" d="M49.83,111.92c-4.52,6.57-5.75,18.38-10.59,15.67.08-1.73.41-1.6.85-2.96,3.87-3.87,5.77-9.77,9.74-12.71Z"/>
          <g>
            <path class="cls-37" d="M26.53,94.13c1.43.5,24.52,15.3,25.41,16.52-6.71,2.59-8.8,13.91-15.88,17.36-7.87-4.51-15.33-9.7-23.08-14.4.31-1.93-.23-3.99,0-5.93,3.28,1.44,1.05.4,3.81-3.18,3.02-3.64,5.85-7.46,8.68-11.22.34.34.57.67,1.06.85Z"/>
            <path class="cls-21" d="M21.04,113.19v-2.96c2.26,1.03,12.73,5,12.71,6.99-.07,4.56-6.02-2.7-12.71-4.02Z"/>
            <path class="cls-30" d="M21.04,110.22v2.96c-.34-.07-5.28,1.37-4.66-3.18.55-3.97,4.03-.08,4.66.21Z"/>
          </g>
        </g>
        <path class="cls-9" d="M74.81,155.54c1.96,2.17,5.64,3.78,8.47,4.66-3.09,1.08-6.57,1.38-9.74,2.12l.42-7.2c.26.26.61,1.39.85.42Z"/>
        <g>
          <path class="cls-37" d="M84.13,144.53q-2.54,6.99-5.08,13.98c-1.06-.53-3.7-2.08-4.24-2.96-.04-.07.09-.47-.42-.42-.41-10.42-.86-20.91,0-31.34.54.27,3.49.71,4.66,1.06,1.74,6.59,4.05,12.91,5.08,19.69Z"/>
          <path class="cls-13" d="M73.97,123.35c-1.53,4.48-2.86,9.02-4.24,13.55-2.8-.76-5.39,2.15-7.62,1.27,1.19-5.35,5.32-11.96,7.2-17.36,1.58.76,3.07,1.75,4.66,2.54Z"/>
          <path class="cls-13" d="M104.46,146.23c.14,1.18-.06,2.58,0,3.81-6.05,2.16-13.48,7.17-19.06,9.32-1.14-2.3,0-3.22,0-3.39q9.53-4.87,19.06-9.74Z"/>
          <path class="cls-27" d="M74.39,123.78c-.4,7.16-.73,14.43-.42,21.6l-5.51-4.24c1.77-5.96,3.53-11.89,5.51-17.79.59.29.4.41.42.42Z"/>
          <path class="cls-16" d="M85.4,155.97c0,.17-1.14,1.08,0,3.39-.73.28-1.36.58-2.12.85-1.52-.44-2.82-.98-4.24-1.69q2.54-6.99,5.08-13.98c.56,3.67,1.2,7.75,1.27,11.44Z"/>
          <path class="cls-31" d="M73.97,145.25c.14,3.2.54,6.39.43,9.58l-.43.16c-2.03-2.03-3.15-1.98-3.39-2.12-1.7-.84-2.94-1.76-4.48-2.56l-.21-.22c.37-2.66,1.83-6.24,2.57-9.07l5.51,4.24Z"/>
          <path class="cls-33" d="M74.81,155.41c-.23.97-.58-.16-.85-.42.45-.05.94.03.85.42Z"/>
          <path class="cls-13" d="M69.73,136.91c-1.17,4.2-2.95,8.99-3.81,13.13-7.45-2.67-6.36-3.18-3.81-11.86,2.24.88,4.83-2.03,7.62-1.27Z"/>
        </g>
      </g>
      <g>
        <path class="cls-3" d="M135.38,133.1c-.18,1.21-.78,1.2-.85,1.69q-14.4,6.78-28.8,13.55c.28-1.03.77-1.53.85-2.54l29.22-13.98c-.15.87-.39,1.02-.42,1.27Z"/>
        <path class="cls-19" d="M105.31,142.84c.7,2.07,1.8,3.38.42,5.51-.72,2.66,0,5.06-.85,7.62-.02-4.11-.64-8.21-.42-12.28l.85-.85Z"/>
        <path class="cls-7" d="M134.69,134.79c-.6,3.07-.09,6.6,1.27,9.32-8,1.87-24.57,15.35-30.92,13.13.42-3.04.32-5.8.85-8.89q14.4-6.78,28.8-13.55Z"/>
      </g>
      <path class="cls-36" d="M164.6,144.95c.23.85.35.99.85,1.69-2.88,3.55-29.57,13.84-30.92,16.09-1.47-.96-.52-1.37-.42-2.96q15.25-7.41,30.49-14.82Z"/>
      <g>
        <path class="cls-9" d="M35.43,141.99c3.93,2.45,4.71,2.93,8.89,5.08,1.97,1.01,6.71,5.13,8.68,4.24,1.42-4.37,1.26-6.29-1.48-9.32,2.48,1.59,6.62,4.41,8.47,6.14.79,6.01-.9,13.73,5.93,15.88,2.98.98,2.83.04,5.51-.85,1.11,1.95,1.9,1.57,2.54,1.69.9,2.88,4.62,3.42,1.69,3.39-12.78-2.83-16.84-8.95-26.89-15.67-12.24-8.19-24.53-16.39-37.06-24.14.02-.27-.01-.57,0-.85,1.2-2.96,18.14,11.54,23.72,14.4Z"/>
        <path class="cls-9" d="M48.13,139.45c4.44,2.88,7.28,6.06,4.87,11.86-1.97.9-6.71-3.22-8.68-4.24-.68-3.51-.33-7.05-.42-10.59,1.36,1.03,2.87,1.96,4.24,2.96Z"/>
        <path class="cls-33" d="M62.11,138.41c-2.55,8.68-3.64,9.19,3.81,11.86l.05.08c-.7,4.66-.72,9.27-.05,13.89-9.77-3.31-1.63-14.48-8.89-18.21,2.45,1.73,3.2-4.15,4.66-8.05h.42c-.04.13.04.29,0,.42Z"/>
        <path class="cls-26" d="M70.04,163.88c-1.5.54-1.09.94-3.66.13-.09-1.3-.36-2.49-.42-3.81,3.33.84,1.06-6.68,1.27-9.32,1.3.78,2.67,1.43,3.99,2.22l-1.17,10.78Z"/>
        <path class="cls-33" d="M74.43,155.12l-.42,7.2c-.94.33-2.07.85-2.96,1.27v-10.59c.24.14,1.36.09,3.39,2.12Z"/>
        <path class="cls-26" d="M66.77,150.88c-.21,2.63,2.06,10.16-1.27,9.32-.16-3.3-.04-6.46.42-9.74.99-.16.81.4.85.42Z"/>
      </g>
    </g>
    <g id="Layer_1-2" data-name="Layer 1-2">
      <g id="dark">
        <g id="letter_dark" data-name="letter dark">
          <path class="cls-17" d="M163.21,205.72v-5.51s3.46-2.6,3.46-2.6l-.03-26.24-3.46.84v-5.49s11.47-5.61,11.47-5.61l12.82,18.7.13-.06-.06-18.57-4.15,1.18-.02-5.5,14.27-6.97.02,5.41-3.36,2.5.13,32.18-7.76,3.91-13.01-17.7-.13.06.03,17.93,4.2-1.25v5.45s-14.56,7.35-14.56,7.35h0Z"/>
          <g>
            <path class="cls-8" d="M173.58,171.42c-1.49,2.31-2.3,3.55-3.7,6.03-1.4,2.48-2.02,3.77-3.3,6.36,0,.01-.01.02-.02.03-1.3,2.61-2.08,4.22-3.17,6.65-1.09,2.43-1.45,3.64-2.25,5.51-.8,1.86-1.09,2.81-1.76,3.81-.67,1-1.1,1.03-1.59,1.17-.5.14-.69-.08-.88-.49-.2-.42-.4-.48-.11-1.57.29-1.09.64-2,1.54-3.87.9-1.86,1.64-3.05,2.95-5.46,1.31-2.41,2.17-3.97,3.6-6.59.69-1.26,1.19-2.22,1.7-3.17.54-1.01,1.08-2,1.83-3.31,1.47-2.54,2.31-3.83,3.8-6.23,1.49-2.41,2.31-3.7,3.67-5.81.15-.23.29-.46.43-.68,1.08-1.71,1.67-2.86,2.71-4.04,1.17-1.33,1.77-1.7,2.69-1.91.77-.18,1.33-.1,1.71.48.08.11.14.24.21.39.38.9.4,1.93.03,3.66,0,.04-.02.1-.03.14-.38,1.81-1.11,2.97-1.94,5.25-.32.88-.61,1.63-.89,2.37l-1.75-2.47s.02-.06.02-.08c.64-2.23.87-3.36,1.35-4.88.14-.43.26-.78.37-1.09-.07.1-.15.21-.24.33-.84,1.14-1.7,2-2.96,3.67-.08.1-.16.22-.25.33-1.4,1.89-2.27,3.17-3.77,5.47Z"/>
            <path class="cls-8" d="M187.45,174.85c.05-.08.09-.15.14-.23v3.53c-.19.33-.38.65-.58.97-.61,1.01-1.19,1.99-1.92,3.25-1.31,2.26-1.91,3.52-2.98,5.34-.08.14-.17.28-.25.43-1.23,2.07-1.73,3.26-2.92,4.56-.43.47-.81.82-1.18,1.09-.64.48-1.22.7-1.89.88-.9.23-1.39.11-1.91-.36-.09-.07-.18-.16-.27-.26-.08-.09-.16-.17-.23-.25-.49-.57-.77-1.13-.79-2.47-.02-1.38.33-2.5.78-4.32.05-.2.1-.41.15-.63.52-2.21.96-3.58,1.67-6.08.13-.44.24-.84.35-1.23l1.55,2.07c-.51,1.87-.84,3.16-1.15,4.85-.34,1.94-.23,2.8-.32,3.96-.1,1.16-.19,1.48-.15,1.84.04.36.04.35.36-.03.33-.38.46-.83,1.27-1.89.81-1.06,1.53-1.65,2.79-3.4.2-.28.39-.55.58-.82.94-1.37,1.67-2.57,2.93-4.51.9-1.4,1.6-2.47,2.35-3.67.49-.78,1.01-1.61,1.61-2.61Z"/>
            <path class="cls-8" d="M194.76,169.71s-.02.05-.03.07l-.03-7.25c.79-.83,1.37-.94,1.85-.67.56.3.9,1.13.54,2.69-.36,1.57-1.35,2.93-2.33,5.16Z"/>
            <path class="cls-8" d="M212.72,157.57c-.99,1.6-1.73,2.82-2.6,4.22-.48.78-1.01,1.61-1.63,2.59-1.76,2.75-2.74,4.25-4.55,6.95-.52.78-.98,1.45-1.39,2.07-1.05,1.55-1.9,2.78-3.14,4.48-1.75,2.4-2.64,3.59-4.18,5.43-.15.18-.3.36-.44.52v-3.63c1.05-1.12,1.98-2.15,3.4-3.92,1.67-2.08,2.67-3.44,4.34-5.81.08-.11.16-.23.24-.35,1.82-2.59,2.81-4.07,4.54-6.78,1.16-1.82,1.96-3.12,2.79-4.54.41-.69.83-1.41,1.3-2.23,1.43-2.5,2.07-.22,1.32,1Z"/>
          </g>
        </g>
      </g>
    </g>
  </g>
</svg>